<?xml version="1.0" encoding="UTF-8"?>
<!DOCTYPE svg PUBLIC "-//W3C//DTD SVG 1.1//EN" "http://www.w3.org/Graphics/SVG/1.1/DTD/svg11.dtd">
<svg xmlns="http://www.w3.org/2000/svg" version="1.1" width="400px" height="400px" style="shape-rendering:geometricPrecision; text-rendering:geometricPrecision; image-rendering:optimizeQuality; fill-rule:evenodd; clip-rule:evenodd" xmlns:xlink="http://www.w3.org/1999/xlink">
<g><path style="opacity:0.883" fill="#e4e4e7" d="M 196.5,36.5 C 230.174,32.3303 257.674,43.3303 279,69.5C 305.183,105.08 313.183,144.413 303,187.5C 295.874,210.292 281.374,226.459 259.5,236C 252.167,238.667 244.833,241.333 237.5,244C 226.992,245.828 223.159,241.662 226,231.5C 237.616,226.733 249.116,221.566 260.5,216C 278.932,203.993 288.765,186.827 290,164.5C 292.44,131.579 283.44,102.246 263,76.5C 245.324,57.2797 223.491,49.7797 197.5,54C 170.562,57.7144 148.395,69.881 131,90.5C 116.701,109.511 111.701,130.845 116,154.5C 118.252,176.84 127.752,195.34 144.5,210C 150.913,214.623 157.413,219.123 164,223.5C 167.069,231.878 164.236,236.378 155.5,237C 122.263,220.385 103.43,193.552 99,156.5C 93.5379,112.932 109.038,79.0985 145.5,55C 161.362,45.3888 178.362,39.2221 196.5,36.5 Z"/></g>
<g><path style="opacity:0.933" fill="#e3e3e7" d="M 173.5,94.5 C 180.954,94.759 187.62,97.259 193.5,102C 200.09,107.182 200.09,112.182 193.5,117C 191.833,117.667 190.167,117.667 188.5,117C 183.277,113.221 177.61,110.221 171.5,108C 167.188,102.731 167.855,98.2307 173.5,94.5 Z"/></g>
<g><path style="opacity:0.94" fill="#e3e3e7" d="M 227.5,96.5 C 236.56,96.0461 239.727,100.046 237,108.5C 230.912,111.794 224.745,114.961 218.5,118C 208.935,119.441 205.435,115.608 208,106.5C 214.233,102.468 220.733,99.1345 227.5,96.5 Z"/></g>
<g><path style="opacity:0.855" fill="#e3e3e6" d="M 179.5,120.5 C 185.925,119.534 189.592,122.201 190.5,128.5C 189.661,137.229 188.494,145.896 187,154.5C 176.913,160.674 171.746,157.841 171.5,146C 171.882,139.441 172.716,132.941 174,126.5C 175.36,123.977 177.193,121.977 179.5,120.5 Z"/></g>
<g><path style="opacity:0.852" fill="#e3e3e6" d="M 220.5,120.5 C 227.671,120.992 230.671,124.825 229.5,132C 228.956,139.164 228.456,146.33 228,153.5C 223.306,159.645 218.306,159.979 213,154.5C 211.154,144.492 211.487,134.492 214,124.5C 216.013,122.752 218.18,121.418 220.5,120.5 Z"/></g>
<g><path style="opacity:0.89" fill="#e4e4e7" d="M 191.5,176.5 C 196.228,176.775 199.394,179.108 201,183.5C 202.448,193.303 203.615,203.137 204.5,213C 204.453,215.889 204.12,218.722 203.5,221.5C 210.209,224.867 214.209,230.2 215.5,237.5C 215.069,238.293 214.735,239.127 214.5,240C 217.949,244.469 218.283,249.136 215.5,254C 209.372,256.563 203.705,259.897 198.5,264C 216.159,263.649 233.826,263.649 251.5,264C 257.527,264.427 263.527,265.093 269.5,266C 278.548,268.712 284.714,274.546 288,283.5C 295.27,300.322 296.937,317.655 293,335.5C 285.506,352.818 273.006,357.652 255.5,350C 248.502,346.503 241.835,342.503 235.5,338C 219.734,324.905 204.568,311.071 190,296.5C 187.298,291.736 184.132,287.402 180.5,283.5C 172.083,284.847 163.749,286.513 155.5,288.5C 158.757,308.455 161.757,328.455 164.5,348.5C 163.831,356.012 159.831,359.179 152.5,358C 150.448,357.07 148.948,355.57 148,353.5C 146.176,335.552 143.176,317.886 139,300.5C 125.677,318.808 114.677,338.475 106,359.5C 101.046,363.677 96.3796,363.343 92,358.5C 91.3333,355.833 91.3333,353.167 92,350.5C 101.234,324.176 115.401,301.01 134.5,281C 139.438,276.697 145.104,273.697 151.5,272C 160.739,269.627 170.072,267.794 179.5,266.5C 179.73,262.306 181.397,258.806 184.5,256C 176.304,253.724 174.138,248.891 178,241.5C 181.752,238.514 185.918,237.847 190.5,239.5C 192.819,238.936 195.153,238.436 197.5,238C 192.56,236.181 187.56,234.514 182.5,233C 175.958,229.708 174.458,224.875 178,218.5C 180.718,216.206 183.885,215.206 187.5,215.5C 186.087,204.534 185.254,193.534 185,182.5C 186.436,179.558 188.603,177.558 191.5,176.5 Z M 215.5,280.5 C 232.913,279.992 250.246,280.826 267.5,283C 272.397,289.343 275.564,296.51 277,304.5C 279.322,313.969 278.989,323.303 276,332.5C 272.881,336.651 269.048,337.485 264.5,335C 256.54,331.688 249.206,327.355 242.5,322C 235.462,315.293 228.128,308.96 220.5,303C 213.468,296.303 206.802,289.303 200.5,282C 205.684,281.826 210.684,281.326 215.5,280.5 Z"/></g>
</svg>
